<?xml version="1.0" encoding="utf-8"?>
<svg version="1.1" xmlns:xlink="http://www.w3.org/1999/xlink" width="16px" height="16px" xmlns="http://www.w3.org/2000/svg">
  <g transform="matrix(1 0 0 1 -180 -217 )">
    <path d="M 15.5675675675676 11.9288889547847  L 15.5675675675676 15.0720000134378  C 15.5677733631966 15.5389283445021  15.2164375227543 15.9264261627444  14.7632432432432 15.9591111047588  C 14.3852973040541 15.9857777710393  14.0765405472973 16  13.8378378445946 16  C 6.19502704054054 16  0 9.63288898803165  0 1.77777797677681  C 0 1.532444646996  0.012972972972975 1.21511131825778  0.0397837905405431 0.82666688638261  C 0.0715853562042287 0.360883883629856  0.448610265899445 -0.000211280484762565  0.902918918918919 0  L 3.96108107432433 0  C 4.18332888693256 -0.000231050889031239  4.36955910142424 0.172723714081224  4.39178377702703 0.400000225894246  C 4.41167566216216 0.604444660433809  4.42983782432433 0.767111324744997  4.44713513513513 0.890666885455863  C 4.61901339199762 2.12348748603974  4.97124566887207 3.32251731155519  5.49189188513514 4.44711127145712  C 5.57405404054054 4.62488903971617  5.52043242567568 4.83733349497322  5.36475675 4.951111264159  L 3.49837838513514 6.32177791097787  C 4.6395272192172 9.05462353619461  6.75852853951818 11.2324859802036  9.41751350675676 12.4053333853855  L 10.7494054054054 10.490666746444  C 10.8617518035976 10.3292406889744  11.0703472748563 10.2734918642652  11.244972972973 10.3582223108619  C 12.3390456310479 10.8923250279762  13.5053660531006 11.2534388809312  14.7044324391892 11.4293333995184  C 14.8246486621622 11.4471111700943  14.9829189324324 11.4666667323111  15.1801081013514 11.486222294528  C 15.400899330657 11.5094897487051  15.5687022260484 11.7007750740028  15.5684324391892 11.9288889547847  Z " fill-rule="nonzero" fill="#3478f7" stroke="none" transform="matrix(1 0 0 1 180 217 )" />
  </g>
</svg>