<?xml version="1.0" encoding="utf-8"?>
<svg version="1.1" xmlns:xlink="http://www.w3.org/1999/xlink" width="18px" height="18px" xmlns="http://www.w3.org/2000/svg">
  <g transform="matrix(1 0 0 1 -334 -120 )">
    <path d="M 5.99999999107143 14.0487804893107  L 5.99999999107143 13.1707317022977  L 14.7745714230749 13.1707317022977  L 16.2857142729592 14.3868292559501  L 16.2857142729592 5.2682926809191  L 17.1428571364796 5.2682926809191  C 17.6162440684282 5.2682926809191  18 5.66140851325736  18 6.14634146793204  L 18 18  L 14.1814285728492 14.9268292557443  L 6.85714285459184 14.9268292557443  C 6.38375593048857 14.9268292557443  6.00000000216643 14.5337134359486  5.99999999107143 14.0487804893107  Z M 14.5714285660077 11.4146341488511  L 3.81857143384726 11.4146341488511  L 0 14.4878048725275  L 0 0.878048787012939  C 0 0.393115840374971  0.383755926024287 0  0.857142850127551 0  L 13.7142857024872 0  C 14.1876726344359 0  14.5714285660077 0.393115832338266  14.5714285660077 0.878048787012939  L 14.5714285660077 11.4146341488511  Z " fill-rule="nonzero" fill="#ffffff" stroke="none" transform="matrix(1 0 0 1 334 120 )" />
  </g>
</svg>