<?xml version="1.0" encoding="utf-8"?>
<svg version="1.1" xmlns:xlink="http://www.w3.org/1999/xlink" width="20px" height="20px" xmlns="http://www.w3.org/2000/svg">
  <g transform="matrix(1 0 0 1 -304 -128 )">
    <path d="M 20 10  C 20 15.5229999956852  15.5229999956852 20  10 20  C 4.47700000431484 20  0 15.5229999956852  0 10  C 0 4.47700000431484  4.47700000431484 0  10 0  C 15.5229999956852 0  20 4.47700000431484  20 10  Z M 10 4.0000000046875  L 10 7.00000000234375  L 5.9999999953125 7.00000000234375  L 5.9999999953125 8.99999999296875  L 14.9999999882813 8.99999999296875  L 10 4.0000000046875  Z M 14.0000000046875 11.0000000070313  L 5.00000001171875 11.0000000070313  L 10 15.9999999953125  L 10 12.9999999976562  L 14.0000000046875 12.9999999976562  L 14.0000000046875 11.0000000070313  Z " fill-rule="nonzero" fill="#006eff" stroke="none" transform="matrix(1 0 0 1 304 128 )" />
  </g>
</svg>