<?xml version="1.0" encoding="utf-8"?>
<svg version="1.1" xmlns:xlink="http://www.w3.org/1999/xlink" width="24px" height="25px" xmlns="http://www.w3.org/2000/svg">
  <g transform="matrix(1 0 0 1 -341 -175 )">
    <path d="M 1.33333333333333 0  L 5.33333333333333 0  L 5.33333333333333 2.63157894736842  L 2.66666666666667 2.63157894736842  L 2.66666666666667 7.89473684210526  C 2.66666666666667 10.8026315789474  5.05333333333333 13.1578947368421  8 13.1578947368421  C 10.9466666666667 13.1578947368421  13.3333333333333 10.8026315789474  13.3333333333333 7.89473684210526  L 13.3333333333333 2.63157894736842  L 10.6666666666667 2.63157894736842  L 10.6666666666667 0  L 14.6666666666667 0  C 15.4026666666667 0  16 0.589473684210526  16 1.31578947368421  L 16 7.89473684210526  C 16 11.8065789473684  13.1173333333333 15.0526315789474  9.33333333333333 15.6802631578947  L 9.33333333333333 17.7631578947368  C 9.33333333333333 20.3065789473684  11.4226666666667 22.3684210526316  14 22.3684210526316  C 15.996 22.3684210526316  17.7 21.1315789473684  18.3666666666667 19.3907894736842  C 16.9706666666667 18.7763157894737  16 17.3947368421053  16 15.7894736842105  C 16 13.6092105263158  17.7906666666667 11.8421052631579  20 11.8421052631579  C 22.2093333333333 11.8421052631579  24 13.6092105263158  24 15.7894736842105  C 24 17.5934210526316  22.7733333333333 19.1144736842105  21.0986666666667 19.5855263157895  C 20.28 22.7  17.412 25  14 25  C 9.94933333333333 25  6.66666666666667 21.7605263157895  6.66666666666667 17.7631578947368  L 6.66666666666667 15.6802631578947  C 2.88266666666667 15.0539473684211  0 11.8065789473684  0 7.89473684210526  L 0 1.31578947368421  C 0 0.589473684210526  0.597333333333334 0  1.33333333333333 0  Z " fill-rule="nonzero" fill="#ffffff" stroke="none" transform="matrix(1 0 0 1 341 175 )" />
  </g>
</svg>