<?xml version="1.0" encoding="utf-8"?>
<svg version="1.1" xmlns:xlink="http://www.w3.org/1999/xlink" width="24px" height="27px" xmlns="http://www.w3.org/2000/svg">
  <g transform="matrix(1 0 0 1 -80 -174 )">
    <path d="M 4 0  L 22.6666666666667 0  C 23.4026666666667 0  24 0.6048  24 1.35  L 24 25.65  C 24 26.3952  23.4026666666667 27  22.6666666666667 27  L 4 27  C 3.264 27  2.66666666666667 26.3952  2.66666666666667 25.65  L 2.66666666666667 22.95  L 0 22.95  L 0 20.25  L 2.66666666666667 20.25  L 2.66666666666667 17.55  L 0 17.55  L 0 14.85  L 2.66666666666667 14.85  L 2.66666666666667 12.15  L 0 12.15  L 0 9.45  L 2.66666666666667 9.45  L 2.66666666666667 6.75  L 0 6.75  L 0 4.05  L 2.66666666666667 4.05  L 2.66666666666667 1.35  C 2.66666666666667 0.6048  3.264 0  4 0  Z M 14.6666666666667 12.15  L 14.6666666666667 8.1  L 12 8.1  L 12 12.15  L 8 12.15  L 8 14.85  L 11.9986666666667 14.85  L 12 18.9  L 14.6666666666667 18.9  L 14.6653333333333 14.85  L 18.6666666666667 14.85  L 18.6666666666667 12.15  L 14.6666666666667 12.15  Z " fill-rule="nonzero" fill="#ffffff" stroke="none" transform="matrix(1 0 0 1 80 174 )" />
  </g>
</svg>