<?xml version="1.0" encoding="utf-8"?>
<svg version="1.1" xmlns:xlink="http://www.w3.org/1999/xlink" width="26px" height="26px" xmlns="http://www.w3.org/2000/svg">
  <g transform="matrix(1 0 0 1 -601 -174 )">
    <path d="M 26 13  C 26 20.1798999943907  20.1798999943907 26  13 26  C 5.8201000056093 26  0 20.1798999943907  0 13  C 0 5.8201000056093  5.8201000056093 0  13 0  C 20.1798999943907 0  26 5.8201000056093  26 13  Z M 18.2000000060937 14.3000000091406  L 14.3000000091406 14.3000000091406  L 14.3000000091406 13  L 18.2000000060937 13  L 18.2000000060937 10.4000000121875  L 14.8382000087202 10.4000000121875  L 17.5967999862525 7.64270001434164  L 15.7572999978459 5.80319999546625  L 13 8.56180000346735  L 10.2427000021541 5.80319999546625  L 8.4032000137475 7.64399999402813  L 11.1617999912798 10.4000000121875  L 7.79999999390625 10.4000000121875  L 7.79999999390625 13  L 11.6999999908594 13  L 11.6999999908594 14.3000000091406  L 7.79999999390625 14.3000000091406  L 7.79999999390625 16.8999999969531  L 11.6999999908594 16.8999999969531  L 11.6999999908594 19.4999999847656  L 14.3000000091406 19.4999999847656  L 14.3000000091406 16.8999999969531  L 18.2000000060937 16.8999999969531  L 18.2000000060937 14.3000000091406  Z " fill-rule="nonzero" fill="#ffffff" stroke="none" transform="matrix(1 0 0 1 601 174 )" />
  </g>
</svg>