<?xml version="1.0" encoding="utf-8"?>
<svg version="1.1" xmlns:xlink="http://www.w3.org/1999/xlink" width="22px" height="30px" xmlns="http://www.w3.org/2000/svg">
  <g transform="matrix(1 0 0 1 -1121 -172 )">
    <path d="M 19.7505 13.6077272727273  L 19.7505 13.6090909090909  C 21.89825 15.7377272727273  21.89825 19.1918181818182  19.7505 21.3218181818182  L 11.972125 29.0359090909091  C 11.435875 29.5677272727273  10.564125 29.5677272727273  10.027875 29.0359090909091  L 2.2495 21.3218181818182  C 0.101750000000001 19.1918181818182  0.101750000000001 15.7377272727273  2.2495 13.6077272727273  C 4.39725 11.4777272727273  7.880125 11.4777272727273  10.027875 13.6077272727273  L 10.998625 14.5718181818182  L 11.972125 13.6077272727273  C 14.119875 11.4777272727273  17.60275 11.4777272727273  19.7505 13.6077272727273  Z M 5.5 5.45454545454546  C 5.5 2.44090909090909  7.96125 0  11 0  C 14.03875 0  16.5 2.44090909090909  16.5 5.45454545454546  C 16.5 8.46818181818182  14.03875 10.9090909090909  11 10.9090909090909  C 7.96125 10.9090909090909  5.5 8.46818181818182  5.5 5.45454545454546  Z " fill-rule="nonzero" fill="#ffffff" stroke="none" transform="matrix(1 0 0 1 1121 172 )" />
  </g>
</svg>